<svg width="38" height="34" viewBox="0 0 38 34" fill="none" xmlns="http://www.w3.org/2000/svg">
<path d="M2.00136 28.1589V6.98065L5.4121 9.7821C7.13379 11.194 9.27435 11.9641 11.4775 11.9641H19.0007L22.5148 4.75401C22.9182 3.92656 23.5383 3.23067 24.3054 2.74427C25.0726 2.25787 25.9566 2.00016 26.8584 2H28.7134V8.22791L36 10.7196V13.2114C36 15.9626 33.8241 18.192 31.1423 18.192H26.29V28.1589C26.3033 28.6583 26.2189 29.1554 26.0418 29.6208C25.8647 30.0862 25.5984 30.5105 25.2588 30.8685C24.9192 31.2266 24.5131 31.5112 24.0644 31.7055C23.6158 31.8999 23.1337 32 22.6467 32C22.1597 32 21.6776 31.8999 21.229 31.7055C20.7803 31.5112 20.3742 31.2266 20.0346 30.8685C19.6949 30.5105 19.4287 30.0862 19.2516 29.6208C19.0745 29.1554 18.9901 28.6583 19.0034 28.1589V26.9116C19.0034 25.536 17.9154 24.4227 16.5745 24.4227H11.7141C10.3732 24.4227 9.28795 25.5388 9.28795 26.9116V28.1589C9.30125 28.6583 9.21685 29.1554 9.03974 29.6208C8.86263 30.0862 8.5964 30.5105 8.25678 30.8685C7.91715 31.2266 7.51102 31.5112 7.06237 31.7055C6.61372 31.8999 6.13166 32 5.64465 32C5.15765 32 4.67559 31.8999 4.22694 31.7055C3.77829 31.5112 3.37216 31.2266 3.03253 30.8685C2.69291 30.5105 2.42668 30.0862 2.24956 29.6208C2.07245 29.1554 1.98806 28.6583 2.00136 28.1589Z" stroke="#415EC7" stroke-width="3.92857" stroke-linecap="round" stroke-linejoin="round"/>
<path d="M19.0332 11.6376C19.5092 13.6383 21.7531 17.7623 26.9073 18.2646" stroke="#415EC7" stroke-width="3.92857" stroke-linecap="round" stroke-linejoin="round"/>
</svg>
