<svg width="50" height="44" viewBox="0 0 50 44" fill="none" xmlns="http://www.w3.org/2000/svg">
<path d="M18.1053 3.28003C6.78938 3.28003 0 12.08 0 16.4804C0 20.8808 2.26283 24.1809 6.78938 24.1809C11.3159 24.1809 13.5797 25.2803 13.5797 28.5804C13.5797 32.9799 16.9739 36.28 21.5004 36.28C36.2115 36.28 43 28.5804 43 20.8808C42.9991 7.68043 31.6814 3.28003 18.1053 3.28003ZM15.2763 7.68043C15.6483 7.68089 16.0165 7.75237 16.36 7.89079C16.7035 8.02921 17.0155 8.23187 17.2782 8.48718C17.5409 8.7425 17.7492 9.04547 17.8911 9.37881C18.033 9.71214 18.1058 10.0693 18.1053 10.4299C18.1053 11.9497 16.8386 13.1803 15.2763 13.1803C13.714 13.1803 12.4473 11.9488 12.4473 10.4299C12.4469 10.0693 12.5197 9.71214 12.6616 9.37881C12.8035 9.04547 13.0118 8.7425 13.2744 8.48718C13.5371 8.23187 13.8491 8.02921 14.1926 7.89079C14.5361 7.75237 14.9043 7.68089 15.2763 7.68043ZM24.3276 7.68043C24.6996 7.68089 25.0679 7.75237 25.4113 7.89079C25.7548 8.02921 26.0668 8.23187 26.3295 8.48718C26.5922 8.7425 26.8005 9.04547 26.9424 9.37881C27.0843 9.71214 27.1571 10.0693 27.1566 10.4299C27.1572 10.7906 27.0845 11.1479 26.9426 11.4813C26.8008 11.8148 26.5925 12.1178 26.3298 12.3732C26.0671 12.6286 25.7551 12.8314 25.4115 12.9698C25.068 13.1083 24.6997 13.1798 24.3276 13.1803C23.9557 13.1797 23.5874 13.1081 23.244 12.9696C22.9006 12.8311 22.5886 12.6283 22.326 12.3729C22.0634 12.1175 21.8553 11.8145 21.7135 11.4811C21.5716 11.1477 21.499 10.7905 21.4996 10.4299C21.4986 9.70179 21.796 9.00309 22.3263 8.48749C22.8567 7.97188 23.5765 7.68159 24.3276 7.68043ZM33.3807 12.08C33.7529 12.0803 34.1213 12.1517 34.4649 12.2902C34.8086 12.4286 35.1207 12.6313 35.3835 12.8867C35.6463 13.1421 35.8546 13.4453 35.9965 13.7787C36.1385 14.1122 36.2112 14.4696 36.2106 14.8303C36.2112 15.1911 36.1385 15.5483 35.9965 15.8818C35.8546 16.2152 35.6463 16.5183 35.3835 16.7736C35.1206 17.029 34.8085 17.2316 34.4649 17.37C34.1212 17.5083 33.7528 17.5796 33.3807 17.5798C33.0088 17.5795 32.6405 17.5081 32.297 17.3697C31.9535 17.2313 31.6416 17.0286 31.3789 16.7733C31.1163 16.5179 30.9081 16.2149 30.7663 15.8815C30.6246 15.5481 30.5519 15.1909 30.5527 14.8303C30.5519 14.4697 30.6245 14.1124 30.7663 13.779C30.9081 13.4456 31.1162 13.1425 31.3789 12.8871C31.6415 12.6317 31.9535 12.4289 32.297 12.2904C32.6405 12.1519 33.0087 12.0804 33.3807 12.08ZM7.35553 14.2806C7.72743 14.2809 8.09561 14.3523 8.43903 14.4907C8.78246 14.629 9.09441 14.8316 9.35704 15.0868C9.61968 15.3421 9.82786 15.645 9.96969 15.9783C10.1115 16.3116 10.1842 16.6687 10.1836 17.0292C10.1836 18.549 8.91694 19.7796 7.35553 19.7796C5.79413 19.7796 4.52655 18.5481 4.52655 17.0292C4.52584 16.3011 4.82346 15.6025 5.35397 15.087C5.88449 14.5716 6.60445 14.2815 7.35553 14.2806ZM21.4996 25.2803C23.3745 25.2803 24.8938 26.7567 24.8938 28.5813C24.8938 30.4033 23.3745 31.8805 21.4996 31.8805C19.6246 31.8805 18.1053 30.4033 18.1053 28.5813C18.1045 28.1484 18.1916 27.7197 18.3618 27.3195C18.5319 26.9193 18.7818 26.5556 19.097 26.2491C19.4122 25.9425 19.7866 25.6992 20.1988 25.533C20.6111 25.3667 21.0531 25.2809 21.4996 25.2803Z" fill="#415EC7"/>
</svg>
