<svg width="43" height="37" viewBox="0 0 43 37" fill="none" xmlns="http://www.w3.org/2000/svg">
<path d="M7.16683 32.375C6.18141 32.375 5.33814 32.0734 4.637 31.4701C3.93586 30.8667 3.58469 30.1406 3.5835 29.2917V12.3333C3.5835 11.4854 3.93466 10.7598 4.637 10.1565C5.33933 9.5532 6.18261 9.25104 7.16683 9.25001H14.3335V6.16668C14.3335 5.31876 14.6847 4.59315 15.387 3.98984C16.0893 3.38654 16.9326 3.08437 17.9168 3.08334H25.0835C26.0689 3.08334 26.9128 3.38551 27.6151 3.98984C28.3175 4.59418 28.668 5.31979 28.6668 6.16668V9.25001H35.8335C36.8189 9.25001 37.6628 9.55218 38.3651 10.1565C39.0675 10.7608 39.418 11.4865 39.4168 12.3333V29.2917C39.4168 30.1396 39.0663 30.8657 38.3651 31.4701C37.664 32.0744 36.8201 32.376 35.8335 32.375H7.16683ZM17.9168 9.25001H25.0835V6.16668H17.9168V9.25001ZM35.8335 23.125H26.8752V26.2083H16.1252V23.125H7.16683V29.2917H35.8335V23.125ZM19.7085 23.125H23.2918V20.0417H19.7085V23.125ZM7.16683 20.0417H16.1252V16.9583H26.8752V20.0417H35.8335V12.3333H7.16683V20.0417Z" fill="#415EC7"/>
</svg>
