<svg width="37" height="31" viewBox="0 0 37 31" fill="none" xmlns="http://www.w3.org/2000/svg">
<g clip-path="url(#clip0_493_874)">
<path d="M23.4334 29.9667H33.3001C33.9543 29.9667 34.5817 29.7489 35.0443 29.3613C35.5069 28.9738 35.7667 28.4481 35.7667 27.9V3.09999C35.7667 2.55188 35.5069 2.02621 35.0443 1.63864C34.5817 1.25106 33.9543 1.03333 33.3001 1.03333H23.4334C22.7792 1.03333 22.1518 1.25106 21.6892 1.63864C21.2266 2.02621 20.9667 2.55188 20.9667 3.09999V27.9C20.9667 28.4481 21.2266 28.9738 21.6892 29.3613C22.1518 29.7489 22.7792 29.9667 23.4334 29.9667ZM23.4334 29.9667H9.86673M16.0334 23.7667V29.9667M20.9667 11.3667H35.7667M24.6667 23.7667H32.0667M3.70007 7.23333H20.9667V23.7667H3.70007C3.04586 23.7667 2.41846 23.5489 1.95587 23.1613C1.49328 22.7738 1.2334 22.2481 1.2334 21.7V9.29999C1.2334 8.75188 1.49328 8.22621 1.95587 7.83864C2.41846 7.45106 3.04586 7.23333 3.70007 7.23333Z" stroke="#415EC7" stroke-width="3.66667"/>
</g>
<defs>
<clipPath id="clip0_493_874">
<rect width="37" height="31" fill="white"/>
</clipPath>
</defs>
</svg>
