<svg width="40" height="35" viewBox="0 0 40 35" fill="none" xmlns="http://www.w3.org/2000/svg">
<path d="M10 3.28125C10 2.99117 9.8683 2.71297 9.63388 2.50785C9.39946 2.30273 9.08152 2.1875 8.75 2.1875C8.41848 2.1875 8.10054 2.30273 7.86612 2.50785C7.6317 2.71297 7.5 2.99117 7.5 3.28125V9.84375C7.49971 11.1045 7.99723 12.3265 8.90837 13.3032C9.81951 14.2798 11.0883 14.951 12.5 15.2031V31.7188C12.5 32.0088 12.6317 32.287 12.8661 32.4922C13.1005 32.6973 13.4185 32.8125 13.75 32.8125C14.0815 32.8125 14.3995 32.6973 14.6339 32.4922C14.8683 32.287 15 32.0088 15 31.7188V15.2031C16.4117 14.951 17.6805 14.2798 18.5916 13.3032C19.5028 12.3265 20.0003 11.1045 20 9.84375V3.28125C20 2.99117 19.8683 2.71297 19.6339 2.50785C19.3995 2.30273 19.0815 2.1875 18.75 2.1875C18.4185 2.1875 18.1005 2.30273 17.8661 2.50785C17.6317 2.71297 17.5 2.99117 17.5 3.28125V9.84375C17.5004 10.5226 17.2602 11.1848 16.8124 11.7392C16.3647 12.2936 15.7314 12.7128 15 12.9391V3.28125C15 2.99117 14.8683 2.71297 14.6339 2.50785C14.3995 2.30273 14.0815 2.1875 13.75 2.1875C13.4185 2.1875 13.1005 2.30273 12.8661 2.50785C12.6317 2.71297 12.5 2.99117 12.5 3.28125V12.9391C11.7686 12.7128 11.1353 12.2936 10.6876 11.7392C10.2398 11.1848 9.99959 10.5226 10 9.84375V3.28125ZM27.5 31.7188V17.5H23.75C23.4185 17.5 23.1005 17.3848 22.8661 17.1796C22.6317 16.9745 22.5 16.6963 22.5 16.4063V7.65625C22.5 6.20594 23.315 4.84969 24.4275 3.87406C25.5425 2.90063 27.0925 2.1875 28.75 2.1875C29.0815 2.1875 29.3995 2.30273 29.6339 2.50785C29.8683 2.71297 30 2.99117 30 3.28125V31.7188C30 32.0088 29.8683 32.287 29.6339 32.4922C29.3995 32.6973 29.0815 32.8125 28.75 32.8125C28.4185 32.8125 28.1005 32.6973 27.8661 32.4922C27.6317 32.287 27.5 32.0088 27.5 31.7188Z" fill="#415EC7"/>
</svg>
