<svg width="48" height="47" viewBox="0 0 48 47" fill="none" xmlns="http://www.w3.org/2000/svg">
<path d="M43.1602 31.5096L40.9802 16.5088C40.7076 14.6429 39.7563 12.9361 38.3013 11.702C36.8462 10.468 34.9852 9.78965 33.0602 9.79167H14.9402C10.9602 9.79167 7.58023 12.6508 7.02023 16.5088L4.84023 31.5096C4.68834 32.5456 4.87339 33.6021 5.36915 34.5294C5.86491 35.4566 6.64621 36.2075 7.60226 36.6756C8.55832 37.1437 9.6406 37.3052 10.6956 37.1372C11.7507 36.9691 12.7249 36.4802 13.4802 35.7396L18.0002 31.3333H30.0002L34.5002 35.7396C35.4602 36.6796 36.7602 37.2083 38.1002 37.2083C41.2202 37.2083 43.6002 34.5254 43.1602 31.5096ZM38.9602 32.9196C38.8569 33.0385 38.7281 33.1335 38.5828 33.1978C38.4376 33.2621 38.2796 33.2942 38.1202 33.2917C37.8202 33.2917 37.5402 33.1742 37.3402 32.9783L31.6602 27.4167H16.3402L10.6602 32.9783C10.4602 33.1742 10.1802 33.2917 9.88023 33.2917C9.72085 33.2942 9.56288 33.2621 9.41765 33.1978C9.27242 33.1335 9.14353 33.0385 9.04023 32.9196C8.93248 32.805 8.85301 32.6677 8.80793 32.5183C8.76286 32.369 8.75338 32.2114 8.78023 32.0579L10.9602 17.0571C11.2602 15.1575 12.9602 13.7083 14.9402 13.7083H33.0602C35.0402 13.7083 36.7402 15.1575 37.0202 17.0767L39.2002 32.0775C39.2602 32.4692 39.1002 32.7433 38.9602 32.9196Z" fill="#415EC7"/>
<path d="M18 15.6667H16V19.5833H12V21.5417H16V25.4583H18V21.5417H22V19.5833H18V15.6667Z" fill="#415EC7"/>
<path d="M34 25.4583C35.1046 25.4583 36 24.5816 36 23.5C36 22.4184 35.1046 21.5417 34 21.5417C32.8954 21.5417 32 22.4184 32 23.5C32 24.5816 32.8954 25.4583 34 25.4583Z" fill="#415EC7"/>
<path d="M30 19.5833C31.1046 19.5833 32 18.7066 32 17.625C32 16.5434 31.1046 15.6667 30 15.6667C28.8954 15.6667 28 16.5434 28 17.625C28 18.7066 28.8954 19.5833 30 19.5833Z" fill="#415EC7"/>
</svg>
