<svg width="39" height="33" viewBox="0 0 39 33" fill="none" xmlns="http://www.w3.org/2000/svg">
<path d="M20.494 6.49507C19.9244 5.99855 19.0757 5.99855 18.506 6.49507C18.6332 6.62213 18.7871 6.72344 18.9581 6.7927C19.1291 6.86196 19.3136 6.8977 19.5 6.8977C19.6864 6.8977 19.8709 6.86196 20.0419 6.7927C20.2129 6.72344 20.3668 6.62213 20.494 6.49507ZM14.8454 28.0016C12.2152 26.0117 9.14595 23.4008 6.74428 20.5428C4.3154 17.6544 2.72093 14.6882 2.72093 11.9639H0C0 15.5461 2.04977 19.0741 4.602 22.1097C7.18144 25.1775 10.4248 27.9237 13.1312 29.9728L14.8454 28.0016ZM2.72093 11.9639C2.72093 7.04838 5.02102 4.01108 7.8653 2.97044C10.7041 1.93319 14.6749 2.67432 18.506 6.49507C19.5808 5.55829 19.6453 3.88938 18.5106 3.02615C14.6618 0.0983559 10.4385 -0.694962 6.87307 0.606588C2.68828 2.13624 0 6.33601 0 11.9639H2.72093ZM24.1546 27.9999C25.1185 29.1094 26.7815 29.2879 27.92 28.3583C30.1131 26.5676 32.4457 24.4299 34.398 22.108C36.9502 19.0724 39 15.5444 39 11.9605H36.2791C36.2791 14.6882 34.6828 17.6527 32.2557 20.5411C29.854 23.3991 26.7848 26.01 24.1546 27.9999ZM39 11.9605C39 6.33432 36.3117 2.13455 32.1251 0.606588C28.5599 -0.696327 24.3382 0.0953853 20.49 3.02341C19.3546 3.88731 19.419 5.55717 20.494 6.49507C24.3251 2.67432 28.2959 1.9315 31.1347 2.96875C33.979 4.00769 36.2791 7.04669 36.2791 11.9605H39ZM13.1312 29.9728C15.4349 31.7191 17.0367 33 19.5 33V30.4619C18.1885 30.4619 17.3722 29.9136 14.8454 28.0016L13.1312 29.9728ZM24.1546 27.9999C21.6278 29.9119 20.8115 30.4619 19.5 30.4619V33C21.9633 33 23.5651 31.7191 25.8688 29.9728L24.1546 27.9999Z" fill="#415EC7"/>
<path d="M31.2905 11.4258H27.6626H31.2905ZM27.6626 11.4258H24.0347H27.6626ZM27.6626 11.4258V8.04162V11.4258ZM27.6626 11.4258V14.81V11.4258Z" fill="#415EC7"/>
<path d="M31.2905 11.4258H27.6626M27.6626 11.4258H24.0347M27.6626 11.4258V8.04162M27.6626 11.4258V14.81" stroke="#415EC7" stroke-width="3.4375" stroke-linecap="round"/>
</svg>
