<svg width="35" height="36" viewBox="0 0 35 36" fill="none" xmlns="http://www.w3.org/2000/svg">
<g clip-path="url(#clip0_493_868)">
<path d="M9.26042 23.025L6.19792 19.8C7.70486 18.25 9.43056 17.0625 11.375 16.2375C13.3194 15.4125 15.3611 15 17.5 15C19.6389 15 21.6869 15.419 23.644 16.257C25.601 17.095 27.3204 18.301 28.8021 19.875L25.7396 23.025C24.6458 21.9 23.3878 21.0315 21.9654 20.4195C20.5431 19.8075 19.0546 19.501 17.5 19.5C15.9444 19.5 14.456 19.8065 13.0346 20.4195C11.6132 21.0325 10.3551 21.901 9.26042 23.025ZM3.0625 16.65L0 13.5C2.30903 11.075 4.97681 9.2185 8.00333 7.9305C11.0299 6.6425 14.1954 5.999 17.5 6C20.8056 6 23.9716 6.644 26.9981 7.932C30.0247 9.22 32.6919 11.076 35 13.5L31.9375 16.65C30.0174 14.675 27.8114 13.1565 25.3196 12.0945C22.8278 11.0325 20.2213 10.501 17.5 10.5C14.7778 10.5 12.1708 11.0315 9.67896 12.0945C7.18715 13.1575 4.98167 14.676 3.0625 16.65ZM17.5 31.5L12.3594 26.175C13.0399 25.475 13.824 24.9375 14.7117 24.5625C15.5993 24.1875 16.5288 24 17.5 24C18.4722 24 19.4022 24.1875 20.2898 24.5625C21.1774 24.9375 21.961 25.475 22.6406 26.175L17.5 31.5Z" fill="#415EC7"/>
</g>
<defs>
<clipPath id="clip0_493_868">
<rect width="35" height="36" fill="white"/>
</clipPath>
</defs>
</svg>
