<svg width="40" height="35" viewBox="0 0 40 35" fill="none" xmlns="http://www.w3.org/2000/svg">
<path d="M40 8.75V24.0625C40 24.6663 39.8698 25.2303 39.6094 25.7544C39.349 26.2785 38.9909 26.7399 38.5352 27.1387C38.0794 27.5374 37.5456 27.8508 36.9336 28.0786C36.3216 28.3065 35.6771 28.4261 35 28.4375H4.86328C4.19922 28.4375 3.57422 28.3236 2.98828 28.0957C2.40234 27.8678 1.88802 27.5659 1.44531 27.1899C1.0026 26.814 0.651042 26.3639 0.390625 25.8398C0.130208 25.3158 0 24.7632 0 24.1821V4.375H35V8.75H40ZM37.5 10.9375H35V22.9688C35 23.265 34.8763 23.5213 34.6289 23.7378C34.3815 23.9543 34.0885 24.0625 33.75 24.0625C33.4115 24.0625 33.1185 23.9543 32.8711 23.7378C32.6237 23.5213 32.5 23.265 32.5 22.9688V6.5625H2.5V24.1821C2.5 24.467 2.55859 24.7347 2.67578 24.9854C2.79297 25.236 2.96224 25.4525 3.18359 25.6348C3.40495 25.8171 3.65885 25.9652 3.94531 26.0791C4.23177 26.193 4.53776 26.25 4.86328 26.25H35C35.3516 26.25 35.6771 26.193 35.9766 26.0791C36.276 25.9652 36.5365 25.8114 36.7578 25.6177C36.9792 25.424 37.1615 25.1904 37.3047 24.917C37.4479 24.6436 37.513 24.3587 37.5 24.0625V10.9375ZM30 10.9375H5V8.75H30V10.9375ZM30 24.0625H20V21.875H30V24.0625ZM30 19.6875H20V17.5H30V19.6875ZM30 15.3125H20V13.125H30V15.3125ZM17.5 24.0625H5V13.0737H17.5V24.0625ZM7.5 21.875H15V15.2612H7.5V21.875Z" fill="#415EC7"/>
</svg>
