<svg width="40" height="35" viewBox="0 0 40 35" fill="none" xmlns="http://www.w3.org/2000/svg">
<path d="M31.6665 20.4167V10.9375L23.3332 5.83333L14.9998 10.9375V13.125H11.6665V9.47917L23.3332 2.1875L34.9998 9.47917V20.4167H31.6665ZM24.1665 11.6667H25.8332V10.2083H24.1665V11.6667ZM20.8332 11.6667H22.4998V10.2083H20.8332V11.6667ZM24.1665 14.5833H25.8332V13.125H24.1665V14.5833ZM20.8332 14.5833H22.4998V13.125H20.8332V14.5833ZM11.6665 26.9792L23.2498 29.75L33.1665 27.0521C33.0276 26.8333 32.8259 26.6447 32.5615 26.4863C32.2971 26.3278 31.9987 26.249 31.6665 26.25H23.2498C22.4998 26.25 21.9026 26.2257 21.4582 26.1771C21.0137 26.1285 20.5554 26.0312 20.0832 25.8854L16.2082 24.7552L17.1248 21.9115L20.4998 22.8958C20.9721 23.0174 21.5276 23.1146 22.1665 23.1875C22.8054 23.2604 23.7498 23.309 24.9998 23.3333C24.9998 23.066 24.9098 22.8108 24.7298 22.5677C24.5498 22.3247 24.3343 22.1667 24.0832 22.0938L14.3332 18.9583H11.6665V26.9792ZM1.6665 32.0833V16.0417H14.3332C14.5276 16.0417 14.7221 16.0601 14.9165 16.0971C15.1109 16.134 15.2915 16.1763 15.4582 16.224L25.2498 19.3958C26.1665 19.6875 26.9098 20.1979 27.4798 20.9271C28.0498 21.6563 28.3343 22.4583 28.3332 23.3333H31.6665C33.0554 23.3333 34.2359 23.7344 35.2082 24.5365C36.1804 25.3385 36.6665 26.3958 36.6665 27.7083V29.1667L23.3332 32.8125L11.6665 29.9688V32.0833H1.6665ZM4.99984 29.1667H8.33317V18.9583H4.99984V29.1667Z" fill="#415EC7"/>
</svg>
