<svg width="40" height="35" viewBox="0 0 40 35" fill="none" xmlns="http://www.w3.org/2000/svg">
<path d="M21.6665 14.5833L31.5815 28.4608C31.631 28.5307 31.6583 28.6108 31.6606 28.693C31.6629 28.7752 31.6402 28.8564 31.5946 28.9283C31.5491 29.0002 31.4825 29.0602 31.4017 29.1021C31.3209 29.144 31.2288 29.1663 31.1348 29.1667H8.86484C8.77042 29.1663 8.67785 29.1437 8.59676 29.1014C8.51567 29.0591 8.44903 28.9985 8.40376 28.926C8.3585 28.8535 8.33627 28.7717 8.33939 28.6891C8.34251 28.6065 8.37087 28.5262 8.42151 28.4565L18.3332 14.5833V4.375H21.6665V14.5833ZM11.6665 1.45834V4.375H14.9998V13.7958L5.59817 26.9063C5.2316 27.4175 5.02811 28.0052 5.00883 28.6085C4.98956 29.2117 5.1552 29.8085 5.48857 30.3368C5.82193 30.8651 6.31085 31.3057 6.90457 31.6129C7.49828 31.92 8.17513 32.0824 8.86484 32.0833H31.1348C31.8245 32.0824 32.5014 31.92 33.0951 31.6129C33.6888 31.3057 34.1778 30.8651 34.5111 30.3368C34.8445 29.8085 35.0101 29.2117 34.9908 28.6085C34.9716 28.0052 34.7681 27.4175 34.4015 26.9063L25.0015 13.7958L24.9998 4.375H28.3332V1.45834H11.6665Z" fill="#415EC7"/>
</svg>
