<svg width="42" height="38" viewBox="0 0 42 38" fill="none" xmlns="http://www.w3.org/2000/svg">
<path d="M2.625 4.75H5.44068L6.6474 9.5M6.6474 9.5L10.6698 25.3333H31.5863L35.6087 9.5H6.6474Z" stroke="#415EC7" stroke-width="4.58333" stroke-linecap="round" stroke-linejoin="round"/>
<path d="M10.6698 33.25C12.0027 33.25 13.0832 32.1867 13.0832 30.875C13.0832 29.5633 12.0027 28.5 10.6698 28.5C9.33688 28.5 8.25635 29.5633 8.25635 30.875C8.25635 32.1867 9.33688 33.25 10.6698 33.25Z" stroke="#415EC7" stroke-width="4.58333" stroke-linecap="round" stroke-linejoin="round"/>
<path d="M31.5863 33.25C32.9192 33.25 33.9997 32.1867 33.9997 30.875C33.9997 29.5633 32.9192 28.5 31.5863 28.5C30.2534 28.5 29.1729 29.5633 29.1729 30.875C29.1729 32.1867 30.2534 33.25 31.5863 33.25Z" stroke="#415EC7" stroke-width="4.58333" stroke-linecap="round" stroke-linejoin="round"/>
</svg>
