<svg width="42" height="38" viewBox="0 0 42 38" fill="none" xmlns="http://www.w3.org/2000/svg">
<path d="M7.875 7.12501C7.875 5.86523 8.42812 4.65705 9.41269 3.76625C10.3973 2.87545 11.7326 2.37501 13.125 2.37501C14.5174 2.37501 15.8527 2.87545 16.8373 3.76625C17.8219 4.65705 18.375 5.86523 18.375 7.12501C18.375 8.38478 17.8219 9.59297 16.8373 10.4838C15.8527 11.3746 14.5174 11.875 13.125 11.875C11.7326 11.875 10.3973 11.3746 9.41269 10.4838C8.42812 9.59297 7.875 8.38478 7.875 7.12501ZM13.125 4.75001C12.4288 4.75001 11.7611 5.00023 11.2688 5.44563C10.7766 5.89103 10.5 6.49512 10.5 7.12501C10.5 7.75489 10.7766 8.35899 11.2688 8.80438C11.7611 9.24978 12.4288 9.50001 13.125 9.50001C13.8212 9.50001 14.4889 9.24978 14.9812 8.80438C15.4734 8.35899 15.75 7.75489 15.75 7.12501C15.75 6.49512 15.4734 5.89103 14.9812 5.44563C14.4889 5.00023 13.8212 4.75001 13.125 4.75001ZM25.6699 10.887C25.1199 10.5075 24.6583 10.0333 24.3115 9.49188C23.9647 8.95042 23.7396 8.35229 23.649 7.73186C23.5585 7.11144 23.6044 6.48094 23.7841 5.87661C23.9637 5.27228 24.2736 4.70602 24.6958 4.21038C25.1181 3.71473 25.6445 3.29947 26.2447 2.98845C26.8449 2.67743 27.5071 2.47678 28.1933 2.39804C28.8795 2.3193 29.5761 2.36401 30.2431 2.52961C30.9102 2.69521 31.5345 2.97844 32.0801 3.36301C33.1545 4.14059 33.8486 5.26869 34.013 6.50458C34.1775 7.74047 33.7991 8.98538 32.9593 9.97143C32.1196 10.9575 30.8856 11.6059 29.5228 11.7771C28.16 11.9483 26.7748 11.6287 25.6699 10.887ZM28.875 4.75001C28.1788 4.75001 27.5111 5.00023 27.0188 5.44563C26.5266 5.89103 26.25 6.49512 26.25 7.12501C26.25 7.75489 26.5266 8.35899 27.0188 8.80438C27.5111 9.24978 28.1788 9.50001 28.875 9.50001C29.5712 9.50001 30.2389 9.24978 30.7312 8.80438C31.2234 8.35899 31.5 7.75489 31.5 7.12501C31.5 6.49512 31.2234 5.89103 30.7312 5.44563C30.2389 5.00023 29.5712 4.75001 28.875 4.75001ZM6.5625 14.25H13.5712C13.2825 14.9934 13.125 15.7938 13.125 16.625H6.5625C6.2144 16.625 5.88056 16.7501 5.63442 16.9728C5.38828 17.1955 5.25 17.4976 5.25 17.8125C5.25 19.7529 6.10313 21.1921 7.44975 22.1706C8.06925 22.6219 8.81213 22.9853 9.65213 23.2513C9.03527 23.8445 8.55992 24.5462 8.25562 25.3128C7.3745 24.9925 6.5495 24.5581 5.8065 24.0231C3.8325 22.5863 2.625 20.463 2.625 17.8125C2.625 16.8677 3.03984 15.9615 3.77827 15.2934C4.51669 14.6253 5.51821 14.25 6.5625 14.25ZM16.4535 14.25C15.7573 15.3416 15.5689 16.6387 15.9298 17.856C16.2906 19.0733 17.1711 20.111 18.3776 20.7409C19.5841 21.3708 21.0178 21.5412 22.3632 21.2147C23.7086 20.8883 24.8556 20.0916 25.5518 19C26.2479 17.9084 26.4363 16.6113 26.0755 15.394C25.7147 14.1767 24.8341 13.139 23.6276 12.5091C22.4211 11.8792 20.9875 11.7088 19.6421 12.0353C18.2967 12.3617 17.1497 13.1584 16.4535 14.25ZM20.412 14.3094C20.7966 14.2308 21.1958 14.2313 21.5802 14.311C21.9645 14.3907 22.3242 14.5474 22.6326 14.7697C22.941 14.992 23.1903 15.2741 23.3621 15.5952C23.5338 15.9163 23.6237 16.2683 23.625 16.625C23.6248 17.0719 23.4853 17.5096 23.2224 17.8879C22.9596 18.2663 22.5841 18.5698 22.1391 18.7638C21.6941 18.9577 21.1977 19.0341 20.7069 18.9842C20.2161 18.9343 19.7508 18.7601 19.3645 18.4817C18.9782 18.2033 18.6865 17.8319 18.523 17.4102C18.3595 16.9886 18.3308 16.5337 18.4402 16.0979C18.5496 15.6622 18.7927 15.2632 19.1415 14.9468C19.4903 14.6304 19.9306 14.4095 20.412 14.3094ZM34.5502 22.1706C33.9307 22.6219 33.1879 22.9853 32.3479 23.2513C32.9638 23.8447 33.4382 24.5464 33.7418 25.3128C34.6343 24.9826 35.4611 24.5528 36.1935 24.0231C38.1675 22.5863 39.375 20.463 39.375 17.8125C39.375 16.8677 38.9602 15.9615 38.2217 15.2934C37.4833 14.6253 36.4818 14.25 35.4375 14.25H28.4287C28.7175 14.9934 28.875 15.7938 28.875 16.625H35.4375C35.7856 16.625 36.1194 16.7501 36.3656 16.9728C36.6117 17.1955 36.75 17.4976 36.75 17.8125C36.75 19.7529 35.8969 21.1921 34.5502 22.1706ZM27.5625 23.75C28.6068 23.75 29.6083 24.1253 30.3467 24.7934C31.0852 25.4615 31.5 26.3677 31.5 27.3125C31.5 29.963 30.2951 32.0863 28.3185 33.5231C26.3734 34.9363 23.7641 35.625 21 35.625C18.2359 35.625 15.6266 34.9363 13.6815 33.5231C11.7075 32.0863 10.5 29.963 10.5 27.3125C10.4986 26.8443 10.5995 26.3805 10.7969 25.9477C10.9943 25.5149 11.2843 25.1217 11.6502 24.7906C12.0161 24.4596 12.4507 24.1972 12.929 24.0186C13.4074 23.84 13.92 23.7488 14.4375 23.75H27.5625ZM27.5625 26.125H14.4375C14.0894 26.125 13.7556 26.2501 13.5094 26.4728C13.2633 26.6955 13.125 26.9976 13.125 27.3125C13.125 29.2529 13.9781 30.6921 15.3247 31.6706C16.7055 32.6729 18.69 33.25 21 33.25C23.31 33.25 25.2945 32.6729 26.6752 31.6706C28.0219 30.6921 28.875 29.2529 28.875 27.3125C28.875 26.9976 28.7367 26.6955 28.4906 26.4728C28.2444 26.2501 27.9106 26.125 27.5625 26.125Z" fill="#415EC7"/>
</svg>
