<svg width="40" height="37" viewBox="0 0 40 37" fill="none" xmlns="http://www.w3.org/2000/svg">
<path d="M3.90016 22.5546C4.90016 22.2154 5.9335 22.0458 7.0335 22.0458C9.26683 22.0458 11.2168 22.6933 12.8835 23.9883L7.65016 28.8292C5.91391 27.0199 4.63314 24.8769 3.90016 22.5546ZM25.9335 15.1083C29.2168 17.3746 32.7668 17.9296 36.5668 16.7733C36.6168 17.0971 36.6668 17.6829 36.6668 18.5C36.6668 20.0879 36.2502 21.8608 35.4668 23.8187C34.6835 25.7612 33.7168 27.3337 32.5835 28.5208L22.0335 18.7929L25.9335 15.1083ZM14.6168 25.6533C16.3835 28.0121 16.7502 30.5867 15.7002 33.3925C13.3335 32.7604 11.2168 31.7737 9.45016 30.4171L14.6168 25.6533ZM20.3168 20.3808L30.8335 30.1396C27.2168 33.0687 22.9668 34.3021 18.1335 33.8242C18.4835 32.8067 18.6668 31.6967 18.6668 30.4942C18.6668 29.5383 18.4335 28.4129 17.9668 27.1333C17.5002 25.8537 16.9502 24.8054 16.3335 23.9883L20.3168 20.3808ZM14.6835 22.3542C13.1647 21.0978 11.3029 20.25 9.30016 19.9029C7.26683 19.5483 5.31683 19.6562 3.4335 20.2421C3.3835 19.9029 3.3335 19.3171 3.3335 18.5C3.3335 16.9121 3.75016 15.1392 4.5335 13.1812C5.31683 11.2387 6.2835 9.66625 7.41683 8.47916L18.5168 18.7929L14.6835 22.3542ZM25.9335 11.9171C23.7002 9.37333 23.1835 6.59833 24.3835 3.6075C25.4168 3.85416 26.6002 4.31666 27.9335 5.02583C29.2502 5.71958 30.3335 6.41333 31.1668 7.07625L25.9335 11.9171ZM36.1002 14.4608C35.1002 14.7846 34.0668 14.9542 32.9668 14.9542C31.1502 14.9542 29.4002 14.4608 27.7335 13.4433L32.8835 8.74125C34.3502 10.4371 35.4168 12.3333 36.1002 14.4608ZM20.3168 17.1279L9.16683 6.86041C12.7835 3.93125 17.0335 2.69791 21.8835 3.17583C21.5168 4.19333 21.3335 5.30333 21.3335 6.50583C21.3335 7.61583 21.6002 8.86458 22.1502 10.2675C22.7002 11.655 23.3335 12.765 24.1668 13.5821L20.3168 17.1279Z" fill="#415EC7"/>
</svg>
