<svg width="39" height="37" viewBox="0 0 39 37" fill="none" xmlns="http://www.w3.org/2000/svg">
<path d="M11.1026 26.4396L5.91592 23.7417L7.6178 22.1229L11.6699 22.6625L17.9911 16.65L5.34863 10.0979L7.6178 7.93958L23.0968 11.7167L29.4585 5.7427C29.9178 5.3059 30.4921 5.08749 31.1815 5.08749C31.8709 5.08749 32.4446 5.3059 32.9028 5.7427C33.362 6.17951 33.5917 6.72577 33.5917 7.38149C33.5917 8.03722 33.362 8.58297 32.9028 9.01874L26.5815 15.0312L30.5526 29.7542L28.2834 31.9125L21.3949 19.8875L15.0736 25.9L15.6409 29.7542L13.939 31.3729L11.1026 26.4396Z" fill="#415EC7"/>
</svg>
